<mxfile host="app.diagrams.net" modified="2022-08-02T08:54:54.403Z" agent="5.0 (Windows NT 10.0; Win64; x64) AppleWebKit/537.36 (KHTML, like Gecko) Chrome/103.0.5060.134 Safari/537.36" etag="Ws8YZJVzx9wr2xdQd1bL" version="20.0.2" type="github" pages="4">
  <diagram id="lRXsZd3I0a4k-6chpkJX" name="Digital Management">
    <mxGraphModel dx="1038" dy="580" grid="1" gridSize="10" guides="1" tooltips="1" connect="1" arrows="1" fold="1" page="1" pageScale="1" pageWidth="1100" pageHeight="850" math="0" shadow="0">
      <root>
        <mxCell id="0" />
        <mxCell id="1" parent="0" />
        <mxCell id="wWg7PXtN8SzlfbGIgACy-6" value="" style="ellipse;whiteSpace=wrap;html=1;aspect=fixed;labelBackgroundColor=none;fontSize=32;fillColor=#f5f5f5;fontColor=#333333;strokeColor=#666666;" vertex="1" parent="1">
          <mxGeometry x="290" y="85" width="280" height="280" as="geometry" />
        </mxCell>
        <mxCell id="wWg7PXtN8SzlfbGIgACy-5" value="" style="ellipse;whiteSpace=wrap;html=1;aspect=fixed;labelBackgroundColor=none;fontSize=32;" vertex="1" parent="1">
          <mxGeometry x="311.25" y="106.25" width="237.5" height="237.5" as="geometry" />
        </mxCell>
        <mxCell id="wWg7PXtN8SzlfbGIgACy-1" value="Digital Product" style="ellipse;whiteSpace=wrap;html=1;aspect=fixed;labelBackgroundColor=none;fontSize=32;fillColor=#dae8fc;strokeColor=#6c8ebf;" vertex="1" parent="1">
          <mxGeometry x="335" y="130" width="190" height="190" as="geometry" />
        </mxCell>
        <mxCell id="wWg7PXtN8SzlfbGIgACy-7" value="Digital Management" style="text;html=1;align=center;verticalAlign=middle;resizable=0;points=[];autosize=1;strokeColor=none;fillColor=none;fontSize=32;" vertex="1" parent="1">
          <mxGeometry x="275" y="30" width="310" height="50" as="geometry" />
        </mxCell>
        <mxCell id="wWg7PXtN8SzlfbGIgACy-9" value="Value Delivery" style="text;html=1;align=center;verticalAlign=middle;resizable=0;points=[];autosize=1;strokeColor=none;fillColor=none;fontSize=32;" vertex="1" parent="1">
          <mxGeometry x="315" y="375" width="230" height="50" as="geometry" />
        </mxCell>
      </root>
    </mxGraphModel>
  </diagram>
  <diagram id="TUvjDhkvq-t7ybgH0WvY" name="Value Streams">
    <mxGraphModel dx="1483" dy="829" grid="1" gridSize="10" guides="1" tooltips="1" connect="1" arrows="1" fold="1" page="1" pageScale="1" pageWidth="1100" pageHeight="850" math="0" shadow="0">
      <root>
        <mxCell id="0" />
        <mxCell id="1" parent="0" />
        <mxCell id="hkTUo5juUwK-wcViYmNe-1" value="IT4IT Value Streams" style="html=1;outlineConnect=0;whiteSpace=wrap;fillColor=#ffff99;shape=mxgraph.archimate3.application;appType=event;archiType=rounded;labelBackgroundColor=none;verticalAlign=top;" vertex="1" parent="1">
          <mxGeometry x="30" y="160" width="680" height="360" as="geometry" />
        </mxCell>
        <mxCell id="hkTUo5juUwK-wcViYmNe-2" value="Explore" style="html=1;outlineConnect=0;whiteSpace=wrap;fillColor=#ffff99;shape=mxgraph.archimate3.application;appType=event;archiType=rounded;labelBackgroundColor=none;" vertex="1" parent="1">
          <mxGeometry x="60" y="235" width="90" height="160" as="geometry" />
        </mxCell>
        <mxCell id="hkTUo5juUwK-wcViYmNe-3" value="Integrate&lt;span style=&quot;color: rgba(0, 0, 0, 0); font-family: monospace; font-size: 0px; text-align: start;&quot;&gt;%3CmxGraphModel%3E%3Croot%3E%3CmxCell%20id%3D%220%22%2F%3E%3CmxCell%20id%3D%221%22%20parent%3D%220%22%2F%3E%3CmxCell%20id%3D%222%22%20value%3D%22Explore%22%20style%3D%22html%3D1%3BoutlineConnect%3D0%3BwhiteSpace%3Dwrap%3BfillColor%3D%23ffff99%3Bshape%3Dmxgraph.archimate3.application%3BappType%3Devent%3BarchiType%3Drounded%3BlabelBackgroundColor%3Dnone%3B%22%20vertex%3D%221%22%20parent%3D%221%22%3E%3CmxGeometry%20x%3D%22110%22%20y%3D%22160%22%20width%3D%22150%22%20height%3D%2275%22%20as%3D%22geometry%22%2F%3E%3C%2FmxCell%3E%3C%2Froot%3E%3C%2FmxGraphModel%3E&lt;/span&gt;" style="html=1;outlineConnect=0;whiteSpace=wrap;fillColor=#ffff99;shape=mxgraph.archimate3.application;appType=event;archiType=rounded;labelBackgroundColor=none;" vertex="1" parent="1">
          <mxGeometry x="170" y="235" width="90" height="160" as="geometry" />
        </mxCell>
        <mxCell id="hkTUo5juUwK-wcViYmNe-4" value="Release&lt;span style=&quot;color: rgba(0, 0, 0, 0); font-family: monospace; font-size: 0px; text-align: start;&quot;&gt;%3CmxGraphModel%3E%3Croot%3E%3CmxCell%20id%3D%220%22%2F%3E%3CmxCell%20id%3D%221%22%20parent%3D%220%22%2F%3E%3CmxCell%20id%3D%222%22%20value%3D%22Integrate%26lt%3Bspan%20style%3D%26quot%3Bcolor%3A%20rgba(0%2C%200%2C%200%2C%200)%3B%20font-family%3A%20monospace%3B%20font-size%3A%200px%3B%20text-align%3A%20start%3B%26quot%3B%26gt%3B%253CmxGraphModel%253E%253Croot%253E%253CmxCell%2520id%253D%25220%2522%252F%253E%253CmxCell%2520id%253D%25221%2522%2520parent%253D%25220%2522%252F%253E%253CmxCell%2520id%253D%25222%2522%2520value%253D%2522Explore%2522%2520style%253D%2522html%253D1%253BoutlineConnect%253D0%253BwhiteSpace%253Dwrap%253BfillColor%253D%2523ffff99%253Bshape%253Dmxgraph.archimate3.application%253BappType%253Devent%253BarchiType%253Drounded%253BlabelBackgroundColor%253Dnone%253B%2522%2520vertex%253D%25221%2522%2520parent%253D%25221%2522%253E%253CmxGeometry%2520x%253D%2522110%2522%2520y%253D%2522160%2522%2520width%253D%2522150%2522%2520height%253D%252275%2522%2520as%253D%2522geometry%2522%252F%253E%253C%252FmxCell%253E%253C%252Froot%253E%253C%252FmxGraphModel%253E%26lt%3B%2Fspan%26gt%3B%22%20style%3D%22html%3D1%3BoutlineConnect%3D0%3BwhiteSpace%3Dwrap%3BfillColor%3D%23ffff99%3Bshape%3Dmxgraph.archimate3.application%3BappType%3Devent%3BarchiType%3Drounded%3BlabelBackgroundColor%3Dnone%3B%22%20vertex%3D%221%22%20parent%3D%221%22%3E%3CmxGeometry%20x%3D%22290%22%20y%3D%22160%22%20width%3D%22150%22%20height%3D%2275%22%20as%3D%22geometry%22%2F%3E%3C%2FmxCell%3E%3C%2Froot%3E%3C%2FmxGraphModel%3E&lt;/span&gt;&lt;span style=&quot;color: rgba(0, 0, 0, 0); font-family: monospace; font-size: 0px; text-align: start;&quot;&gt;%3CmxGraphModel%3E%3Croot%3E%3CmxCell%20id%3D%220%22%2F%3E%3CmxCell%20id%3D%221%22%20parent%3D%220%22%2F%3E%3CmxCell%20id%3D%222%22%20value%3D%22Integrate%26lt%3Bspan%20style%3D%26quot%3Bcolor%3A%20rgba(0%2C%200%2C%200%2C%200)%3B%20font-family%3A%20monospace%3B%20font-size%3A%200px%3B%20text-align%3A%20start%3B%26quot%3B%26gt%3B%253CmxGraphModel%253E%253Croot%253E%253CmxCell%2520id%253D%25220%2522%252F%253E%253CmxCell%2520id%253D%25221%2522%2520parent%253D%25220%2522%252F%253E%253CmxCell%2520id%253D%25222%2522%2520value%253D%2522Explore%2522%2520style%253D%2522html%253D1%253BoutlineConnect%253D0%253BwhiteSpace%253Dwrap%253BfillColor%253D%2523ffff99%253Bshape%253Dmxgraph.archimate3.application%253BappType%253Devent%253BarchiType%253Drounded%253BlabelBackgroundColor%253Dnone%253B%2522%2520vertex%253D%25221%2522%2520parent%253D%25221%2522%253E%253CmxGeometry%2520x%253D%2522110%2522%2520y%253D%2522160%2522%2520width%253D%2522150%2522%2520height%253D%252275%2522%2520as%253D%2522geometry%2522%252F%253E%253C%252FmxCell%253E%253C%252Froot%253E%253C%252FmxGraphModel%253E%26lt%3B%2Fspan%26gt%3B%22%20style%3D%22html%3D1%3BoutlineConnect%3D0%3BwhiteSpace%3Dwrap%3BfillColor%3D%23ffff99%3Bshape%3Dmxgraph.archimate3.application%3BappType%3Devent%3BarchiType%3Drounded%3BlabelBackgroundColor%3Dnone%3B%22%20vertex%3D%221%22%20parent%3D%221%22%3E%3CmxGeometry%20x%3D%22290%22%20y%3D%22160%22%20width%3D%22150%22%20height%3D%2275%22%20as%3D%22geometry%22%2F%3E%3C%2FmxCell%3E%3C%2Froot%3E%3C%2FmxGraphModel%3E&lt;/span&gt;&lt;span style=&quot;color: rgba(0, 0, 0, 0); font-family: monospace; font-size: 0px; text-align: start;&quot;&gt;%3CmxGraphModel%3E%3Croot%3E%3CmxCell%20id%3D%220%22%2F%3E%3CmxCell%20id%3D%221%22%20parent%3D%220%22%2F%3E%3CmxCell%20id%3D%222%22%20value%3D%22Integrate%26lt%3Bspan%20style%3D%26quot%3Bcolor%3A%20rgba(0%2C%200%2C%200%2C%200)%3B%20font-family%3A%20monospace%3B%20font-size%3A%200px%3B%20text-align%3A%20start%3B%26quot%3B%26gt%3B%253CmxGraphModel%253E%253Croot%253E%253CmxCell%2520id%253D%25220%2522%252F%253E%253CmxCell%2520id%253D%25221%2522%2520parent%253D%25220%2522%252F%253E%253CmxCell%2520id%253D%25222%2522%2520value%253D%2522Explore%2522%2520style%253D%2522html%253D1%253BoutlineConnect%253D0%253BwhiteSpace%253Dwrap%253BfillColor%253D%2523ffff99%253Bshape%253Dmxgraph.archimate3.application%253BappType%253Devent%253BarchiType%253Drounded%253BlabelBackgroundColor%253Dnone%253B%2522%2520vertex%253D%25221%2522%2520parent%253D%25221%2522%253E%253CmxGeometry%2520x%253D%2522110%2522%2520y%253D%2522160%2522%2520width%253D%2522150%2522%2520height%253D%252275%2522%2520as%253D%2522geometry%2522%252F%253E%253C%252FmxCell%253E%253C%252Froot%253E%253C%252FmxGraphModel%253E%26lt%3B%2Fspan%26gt%3B%22%20style%3D%22html%3D1%3BoutlineConnect%3D0%3BwhiteSpace%3Dwrap%3BfillColor%3D%23ffff99%3Bshape%3Dmxgraph.archimate3.application%3BappType%3Devent%3BarchiType%3Drounded%3BlabelBackgroundColor%3Dnone%3B%22%20vertex%3D%221%22%20parent%3D%221%22%3E%3CmxGeometry%20x%3D%22290%22%20y%3D%22160%22%20width%3D%22150%22%20height%3D%2275%22%20as%3D%22geometry%22%2F%3E%3C%2FmxCell%3E%3C%2Froot%3E%3C%2FmxGraphModel%3E&lt;/span&gt;" style="html=1;outlineConnect=0;whiteSpace=wrap;fillColor=#ffff99;shape=mxgraph.archimate3.application;appType=event;archiType=rounded;labelBackgroundColor=none;" vertex="1" parent="1">
          <mxGeometry x="280" y="235" width="120" height="75" as="geometry" />
        </mxCell>
        <mxCell id="hkTUo5juUwK-wcViYmNe-5" value="Evaluate" style="html=1;outlineConnect=0;whiteSpace=wrap;fillColor=#ffff99;shape=mxgraph.archimate3.application;appType=event;archiType=rounded;labelBackgroundColor=none;" vertex="1" parent="1">
          <mxGeometry x="60" y="410" width="590" height="75" as="geometry" />
        </mxCell>
        <mxCell id="hkTUo5juUwK-wcViYmNe-6" value="Consume" style="html=1;outlineConnect=0;whiteSpace=wrap;fillColor=#ffff99;shape=mxgraph.archimate3.application;appType=event;archiType=rounded;labelBackgroundColor=none;" vertex="1" parent="1">
          <mxGeometry x="420" y="235" width="120" height="75" as="geometry" />
        </mxCell>
        <mxCell id="hkTUo5juUwK-wcViYmNe-7" value="Operate" style="html=1;outlineConnect=0;whiteSpace=wrap;fillColor=#ffff99;shape=mxgraph.archimate3.application;appType=event;archiType=rounded;labelBackgroundColor=none;" vertex="1" parent="1">
          <mxGeometry x="560" y="235" width="90" height="160" as="geometry" />
        </mxCell>
        <mxCell id="hkTUo5juUwK-wcViYmNe-8" value="Deploy" style="html=1;outlineConnect=0;whiteSpace=wrap;fillColor=#ffff99;shape=mxgraph.archimate3.application;appType=event;archiType=rounded;labelBackgroundColor=none;" vertex="1" parent="1">
          <mxGeometry x="280" y="320" width="260" height="75" as="geometry" />
        </mxCell>
        <mxCell id="hkTUo5juUwK-wcViYmNe-9" value="Reduced Manual Effort" style="shape=ellipse;html=1;whiteSpace=wrap;fillColor=#CCCCFF;perimeter=ellipsePerimeter;labelBackgroundColor=none;" vertex="1" parent="1">
          <mxGeometry x="730" y="160" width="150" height="75" as="geometry" />
        </mxCell>
        <mxCell id="hkTUo5juUwK-wcViYmNe-10" value="Consumer" style="html=1;outlineConnect=0;whiteSpace=wrap;fillColor=#CCCCFF;shape=mxgraph.archimate3.application;appType=role;archiType=oct;labelBackgroundColor=none;" vertex="1" parent="1">
          <mxGeometry x="930" y="160" width="150" height="75" as="geometry" />
        </mxCell>
        <mxCell id="hkTUo5juUwK-wcViYmNe-12" value="" style="edgeStyle=elbowEdgeStyle;html=1;endArrow=none;elbow=vertical;rounded=0;startSize=6;entryX=0;entryY=0.5;entryDx=0;entryDy=0;entryPerimeter=0;exitX=1;exitY=0.5;exitDx=0;exitDy=0;" edge="1" parent="1" source="hkTUo5juUwK-wcViYmNe-9" target="hkTUo5juUwK-wcViYmNe-10">
          <mxGeometry width="160" relative="1" as="geometry">
            <mxPoint x="440" y="380" as="sourcePoint" />
            <mxPoint x="600" y="380" as="targetPoint" />
          </mxGeometry>
        </mxCell>
        <mxCell id="hkTUo5juUwK-wcViYmNe-13" value="Digital Product" style="html=1;outlineConnect=0;whiteSpace=wrap;fillColor=#CCCCFF;shape=mxgraph.archimate3.application;appType=outcome;archiType=oct;labelBackgroundColor=none;" vertex="1" parent="1">
          <mxGeometry x="930" y="302.5" width="150" height="75" as="geometry" />
        </mxCell>
        <mxCell id="hkTUo5juUwK-wcViYmNe-14" value="" style="edgeStyle=elbowEdgeStyle;html=1;endArrow=none;elbow=vertical;rounded=0;startSize=6;entryX=0.5;entryY=0;entryDx=0;entryDy=0;entryPerimeter=0;" edge="1" parent="1" source="hkTUo5juUwK-wcViYmNe-10" target="hkTUo5juUwK-wcViYmNe-13">
          <mxGeometry width="160" relative="1" as="geometry">
            <mxPoint x="860" y="490" as="sourcePoint" />
            <mxPoint x="1005" y="300" as="targetPoint" />
          </mxGeometry>
        </mxCell>
        <mxCell id="hkTUo5juUwK-wcViYmNe-15" value="" style="edgeStyle=elbowEdgeStyle;html=1;endArrow=block;elbow=vertical;endFill=0;dashed=1;rounded=0;startSize=6;entryX=0;entryY=0.5;entryDx=0;entryDy=0;entryPerimeter=0;exitX=1;exitY=0.5;exitDx=0;exitDy=0;exitPerimeter=0;" edge="1" parent="1" source="hkTUo5juUwK-wcViYmNe-1" target="hkTUo5juUwK-wcViYmNe-13">
          <mxGeometry width="160" relative="1" as="geometry">
            <mxPoint x="830" y="350" as="sourcePoint" />
            <mxPoint x="700" y="360" as="targetPoint" />
          </mxGeometry>
        </mxCell>
        <mxCell id="hkTUo5juUwK-wcViYmNe-16" value="" style="edgeStyle=elbowEdgeStyle;html=1;endArrow=none;elbow=vertical;rounded=0;startSize=6;entryX=0.5;entryY=1;entryDx=0;entryDy=0;" edge="1" parent="1" target="hkTUo5juUwK-wcViYmNe-9">
          <mxGeometry width="160" relative="1" as="geometry">
            <mxPoint x="805" y="340" as="sourcePoint" />
            <mxPoint x="600" y="380" as="targetPoint" />
          </mxGeometry>
        </mxCell>
        <mxCell id="hkTUo5juUwK-wcViYmNe-17" value="IT4IT Value Streams" style="text;html=1;align=left;verticalAlign=middle;resizable=0;points=[];autosize=1;strokeColor=none;fillColor=none;fontSize=32;" vertex="1" parent="1">
          <mxGeometry x="40" y="20" width="310" height="50" as="geometry" />
        </mxCell>
        <mxCell id="hkTUo5juUwK-wcViYmNe-18" value="" style="edgeStyle=elbowEdgeStyle;html=1;endArrow=none;elbow=vertical;rounded=0;fontSize=32;startSize=6;strokeWidth=4;" edge="1" parent="1">
          <mxGeometry width="160" relative="1" as="geometry">
            <mxPoint x="2" y="80" as="sourcePoint" />
            <mxPoint x="1097" y="80" as="targetPoint" />
          </mxGeometry>
        </mxCell>
      </root>
    </mxGraphModel>
  </diagram>
  <diagram id="2C3K1acEMCMOy-wvt-sp" name="Evaluate">
    <mxGraphModel dx="1038" dy="580" grid="1" gridSize="10" guides="1" tooltips="1" connect="1" arrows="1" fold="1" page="1" pageScale="1" pageWidth="1100" pageHeight="850" math="0" shadow="0">
      <root>
        <mxCell id="0" />
        <mxCell id="1" parent="0" />
        <mxCell id="8MaoYhMkxImXcsdjHWaw-1" value="" style="html=1;shadow=0;dashed=0;align=center;verticalAlign=middle;shape=mxgraph.arrows2.uTurnArrow;dy=15.5;arrowHead=57;dx2=16.25;labelBackgroundColor=none;fontSize=32;fillColor=none;" vertex="1" parent="1">
          <mxGeometry x="310" y="80" width="100" height="270" as="geometry" />
        </mxCell>
      </root>
    </mxGraphModel>
  </diagram>
  <diagram id="KPmfQA1NUiEnwWkzW9zK" name="Explore">
    <mxGraphModel dx="1483" dy="829" grid="1" gridSize="10" guides="1" tooltips="1" connect="1" arrows="1" fold="1" page="1" pageScale="1" pageWidth="1100" pageHeight="850" math="0" shadow="0">
      <root>
        <mxCell id="0" />
        <mxCell id="1" parent="0" />
        <mxCell id="FfGenMCwjW7ipanYL8LP-10" style="edgeStyle=orthogonalEdgeStyle;rounded=0;orthogonalLoop=1;jettySize=auto;html=1;entryX=0;entryY=0.5;entryDx=0;entryDy=0;entryPerimeter=0;endArrow=block;endFill=1;startSize=6;" edge="1" parent="1" source="FfGenMCwjW7ipanYL8LP-1" target="FfGenMCwjW7ipanYL8LP-2">
          <mxGeometry relative="1" as="geometry" />
        </mxCell>
        <mxCell id="FfGenMCwjW7ipanYL8LP-1" value="Explore" style="html=1;outlineConnect=0;whiteSpace=wrap;fillColor=#ffff99;shape=mxgraph.archimate3.application;appType=event;archiType=rounded;verticalAlign=top;" vertex="1" parent="1">
          <mxGeometry y="40" width="880" height="120" as="geometry" />
        </mxCell>
        <mxCell id="FfGenMCwjW7ipanYL8LP-2" value="Digital Product Vision, design, and Product Roadmap" style="html=1;outlineConnect=0;whiteSpace=wrap;fillColor=#CCCCFF;shape=mxgraph.archimate3.application;appType=outcome;archiType=oct;" vertex="1" parent="1">
          <mxGeometry x="930" y="62.5" width="150" height="75" as="geometry" />
        </mxCell>
        <mxCell id="FfGenMCwjW7ipanYL8LP-4" value="Prioritize Backlog Items" style="html=1;shadow=0;dashed=0;align=center;verticalAlign=middle;shape=mxgraph.arrows2.arrow;dy=0;dx=10;notch=10;labelBackgroundColor=none;fillColor=none;" vertex="1" parent="1">
          <mxGeometry x="40" y="85" width="200" height="30" as="geometry" />
        </mxCell>
        <mxCell id="FfGenMCwjW7ipanYL8LP-5" value="Define Digital Product Architecture" style="html=1;shadow=0;dashed=0;align=center;verticalAlign=middle;shape=mxgraph.arrows2.arrow;dy=0;dx=10;notch=10;labelBackgroundColor=none;fillColor=none;" vertex="1" parent="1">
          <mxGeometry x="240" y="85" width="230" height="30" as="geometry" />
        </mxCell>
        <mxCell id="FfGenMCwjW7ipanYL8LP-7" value="Refine Product Backlog" style="html=1;shadow=0;dashed=0;align=center;verticalAlign=middle;shape=mxgraph.arrows2.arrow;dy=0;dx=10;notch=10;labelBackgroundColor=none;fillColor=none;" vertex="1" parent="1">
          <mxGeometry x="470" y="85" width="180" height="30" as="geometry" />
        </mxCell>
        <mxCell id="FfGenMCwjW7ipanYL8LP-8" value="Finalize Roadmap &amp;amp; Scope" style="html=1;shadow=0;dashed=0;align=center;verticalAlign=middle;shape=mxgraph.arrows2.arrow;dy=0;dx=10;notch=10;labelBackgroundColor=none;fillColor=none;" vertex="1" parent="1">
          <mxGeometry x="650" y="85" width="190" height="30" as="geometry" />
        </mxCell>
      </root>
    </mxGraphModel>
  </diagram>
</mxfile>
